<svg width="1363" height="297" viewBox="0 0 1363 297" fill="none" xmlns="http://www.w3.org/2000/svg">
<path d="M0 15C0 6.71573 6.71573 0 15 0H37V297H15C6.71573 297 0 290.284 0 282V15Z" fill="#206591"/>
<path d="M37 0H1363V297H37V0Z" fill="#F0F0F0"/>
<path d="M105.639 67.1426V49.4062H110.895V67.1426C110.895 68.8535 110.52 70.3242 109.77 71.5547C109.02 72.7734 107.994 73.7109 106.693 74.3672C105.404 75.0234 103.951 75.3516 102.334 75.3516C100.658 75.3516 99.1758 75.0703 97.8867 74.5078C96.5977 73.9453 95.584 73.084 94.8457 71.9238C94.1074 70.752 93.7383 69.2695 93.7383 67.4766H99.0293C99.0293 68.4141 99.1582 69.1582 99.416 69.709C99.6855 70.2598 100.066 70.6523 100.559 70.8867C101.051 71.1211 101.643 71.2383 102.334 71.2383C103.002 71.2383 103.582 71.0801 104.074 70.7637C104.566 70.4473 104.947 69.9844 105.217 69.375C105.498 68.7656 105.639 68.0215 105.639 67.1426ZM114.27 65.6836V65.3145C114.27 63.9199 114.469 62.6367 114.867 61.4648C115.266 60.2812 115.846 59.2559 116.607 58.3887C117.369 57.5215 118.307 56.8477 119.42 56.3672C120.533 55.875 121.811 55.6289 123.252 55.6289C124.693 55.6289 125.977 55.875 127.102 56.3672C128.227 56.8477 129.17 57.5215 129.932 58.3887C130.705 59.2559 131.291 60.2812 131.689 61.4648C132.088 62.6367 132.287 63.9199 132.287 65.3145V65.6836C132.287 67.0664 132.088 68.3496 131.689 69.5332C131.291 70.7051 130.705 71.7305 129.932 72.6094C129.17 73.4766 128.232 74.1504 127.119 74.6309C126.006 75.1113 124.729 75.3516 123.287 75.3516C121.846 75.3516 120.562 75.1113 119.438 74.6309C118.324 74.1504 117.381 73.4766 116.607 72.6094C115.846 71.7305 115.266 70.7051 114.867 69.5332C114.469 68.3496 114.27 67.0664 114.27 65.6836ZM119.332 65.3145V65.6836C119.332 66.4805 119.402 67.2246 119.543 67.916C119.684 68.6074 119.906 69.2168 120.211 69.7441C120.527 70.2598 120.938 70.6641 121.441 70.957C121.945 71.25 122.561 71.3965 123.287 71.3965C123.99 71.3965 124.594 71.25 125.098 70.957C125.602 70.6641 126.006 70.2598 126.311 69.7441C126.615 69.2168 126.838 68.6074 126.979 67.916C127.131 67.2246 127.207 66.4805 127.207 65.6836V65.3145C127.207 64.541 127.131 63.8145 126.979 63.1348C126.838 62.4434 126.609 61.834 126.293 61.3066C125.988 60.7676 125.584 60.3457 125.08 60.041C124.576 59.7363 123.967 59.584 123.252 59.584C122.537 59.584 121.928 59.7363 121.424 60.041C120.932 60.3457 120.527 60.7676 120.211 61.3066C119.906 61.834 119.684 62.4434 119.543 63.1348C119.402 63.8145 119.332 64.541 119.332 65.3145ZM146.648 70.4473V55.9805H151.711V75H146.947L146.648 70.4473ZM147.211 66.5449L148.705 66.5098C148.705 67.7754 148.559 68.9531 148.266 70.043C147.973 71.1211 147.533 72.0586 146.947 72.8555C146.361 73.6406 145.623 74.2559 144.732 74.7012C143.842 75.1348 142.793 75.3516 141.586 75.3516C140.66 75.3516 139.805 75.2227 139.02 74.9648C138.246 74.6953 137.578 74.2793 137.016 73.7168C136.465 73.1426 136.031 72.4102 135.715 71.5195C135.41 70.6172 135.258 69.5332 135.258 68.2676V55.9805H140.32V68.3027C140.32 68.8652 140.385 69.3398 140.514 69.7266C140.654 70.1133 140.848 70.4297 141.094 70.6758C141.34 70.9219 141.627 71.0977 141.955 71.2031C142.295 71.3086 142.67 71.3613 143.08 71.3613C144.123 71.3613 144.943 71.1504 145.541 70.7285C146.15 70.3066 146.578 69.7324 146.824 69.0059C147.082 68.2676 147.211 67.4473 147.211 66.5449ZM166.811 70.8516V48H171.908V75H167.32L166.811 70.8516ZM154.787 65.7188V65.3496C154.787 63.8965 154.951 62.5781 155.279 61.3945C155.607 60.1992 156.088 59.1738 156.721 58.3184C157.354 57.4629 158.133 56.8008 159.059 56.332C159.984 55.8633 161.039 55.6289 162.223 55.6289C163.336 55.6289 164.309 55.8633 165.141 56.332C165.984 56.8008 166.699 57.4688 167.285 58.3359C167.883 59.1914 168.363 60.2051 168.727 61.377C169.09 62.5371 169.354 63.8086 169.518 65.1914V66C169.354 67.3242 169.09 68.5547 168.727 69.6914C168.363 70.8281 167.883 71.8242 167.285 72.6797C166.699 73.5234 165.984 74.1797 165.141 74.6484C164.297 75.1172 163.312 75.3516 162.188 75.3516C161.004 75.3516 159.949 75.1113 159.023 74.6309C158.109 74.1504 157.336 73.4766 156.703 72.6094C156.082 71.7422 155.607 70.7227 155.279 69.5508C154.951 68.3789 154.787 67.1016 154.787 65.7188ZM159.85 65.3496V65.7188C159.85 66.5039 159.908 67.2363 160.025 67.916C160.154 68.5957 160.359 69.1992 160.641 69.7266C160.934 70.2422 161.309 70.6465 161.766 70.9395C162.234 71.2207 162.803 71.3613 163.471 71.3613C164.338 71.3613 165.053 71.168 165.615 70.7812C166.178 70.3828 166.605 69.8379 166.898 69.1465C167.203 68.4551 167.379 67.6582 167.426 66.7559V64.4531C167.391 63.7148 167.285 63.0527 167.109 62.4668C166.945 61.8691 166.699 61.3594 166.371 60.9375C166.055 60.5156 165.656 60.1875 165.176 59.9531C164.707 59.7188 164.15 59.6016 163.506 59.6016C162.85 59.6016 162.287 59.7539 161.818 60.0586C161.35 60.3516 160.969 60.7559 160.676 61.2715C160.395 61.7871 160.184 62.3965 160.043 63.0996C159.914 63.791 159.85 64.541 159.85 65.3496ZM195.551 53.7832L188.59 75H182.982L192.492 49.4062H196.061L195.551 53.7832ZM201.334 75L194.355 53.7832L193.793 49.4062H197.396L206.959 75H201.334ZM201.018 65.4727V69.6035H187.5V65.4727H201.018ZM209.016 48H214.078V70.6406L213.568 75H209.016V48ZM226.119 65.2969V65.666C226.119 67.084 225.967 68.3848 225.662 69.5684C225.369 70.752 224.912 71.7773 224.291 72.6445C223.67 73.5 222.896 74.168 221.971 74.6484C221.057 75.1172 219.979 75.3516 218.736 75.3516C217.576 75.3516 216.568 75.1172 215.713 74.6484C214.869 74.1797 214.16 73.5176 213.586 72.6621C213.012 71.8066 212.549 70.8047 212.197 69.6562C211.846 68.5078 211.582 67.2539 211.406 65.8945V65.0859C211.582 63.7266 211.846 62.4727 212.197 61.3242C212.549 60.1758 213.012 59.1738 213.586 58.3184C214.16 57.4629 214.869 56.8008 215.713 56.332C216.557 55.8633 217.553 55.6289 218.701 55.6289C219.955 55.6289 221.045 55.8691 221.971 56.3496C222.908 56.8184 223.682 57.4863 224.291 58.3535C224.912 59.209 225.369 60.2285 225.662 61.4121C225.967 62.584 226.119 63.8789 226.119 65.2969ZM221.057 65.666V65.2969C221.057 64.5234 220.998 63.7969 220.881 63.1172C220.775 62.4258 220.588 61.8223 220.318 61.3066C220.049 60.7793 219.68 60.3633 219.211 60.0586C218.754 59.7539 218.162 59.6016 217.436 59.6016C216.744 59.6016 216.158 59.7188 215.678 59.9531C215.197 60.1875 214.799 60.5156 214.482 60.9375C214.178 61.3594 213.949 61.8633 213.797 62.4492C213.645 63.0234 213.551 63.6562 213.516 64.3477V66.6504C213.551 67.5762 213.703 68.3965 213.973 69.1113C214.254 69.8145 214.676 70.3711 215.238 70.7812C215.812 71.1797 216.557 71.3789 217.471 71.3789C218.186 71.3789 218.777 71.2383 219.246 70.957C219.715 70.6758 220.078 70.2773 220.336 69.7617C220.605 69.2461 220.793 68.6426 220.898 67.9512C221.004 67.248 221.057 66.4863 221.057 65.666ZM234.609 55.9805V75H229.529V55.9805H234.609ZM229.213 51.0234C229.213 50.2852 229.471 49.6758 229.986 49.1953C230.502 48.7148 231.193 48.4746 232.061 48.4746C232.916 48.4746 233.602 48.7148 234.117 49.1953C234.645 49.6758 234.908 50.2852 234.908 51.0234C234.908 51.7617 234.645 52.3711 234.117 52.8516C233.602 53.332 232.916 53.5723 232.061 53.5723C231.193 53.5723 230.502 53.332 229.986 52.8516C229.471 52.3711 229.213 51.7617 229.213 51.0234ZM265.143 59.8301V63.9434H251.783V59.8301H265.143ZM253.348 49.4062V75H248.074V49.4062H253.348ZM268.904 49.4062V75H263.648V49.4062H268.904ZM283.441 70.7109V62.2383C283.441 61.6289 283.342 61.1074 283.143 60.6738C282.943 60.2285 282.633 59.8828 282.211 59.6367C281.801 59.3906 281.268 59.2676 280.611 59.2676C280.049 59.2676 279.562 59.3672 279.152 59.5664C278.742 59.7539 278.426 60.0293 278.203 60.3926C277.98 60.7441 277.869 61.1602 277.869 61.6406H272.807C272.807 60.832 272.994 60.0645 273.369 59.3379C273.744 58.6113 274.289 57.9727 275.004 57.4219C275.719 56.8594 276.568 56.4199 277.553 56.1035C278.549 55.7871 279.662 55.6289 280.893 55.6289C282.369 55.6289 283.682 55.875 284.83 56.3672C285.979 56.8594 286.881 57.5977 287.537 58.582C288.205 59.5664 288.539 60.7969 288.539 62.2734V70.4121C288.539 71.4551 288.604 72.3105 288.732 72.9785C288.861 73.6348 289.049 74.209 289.295 74.7012V75H284.18C283.934 74.4844 283.746 73.8398 283.617 73.0664C283.5 72.2812 283.441 71.4961 283.441 70.7109ZM284.109 63.416L284.145 66.2812H281.314C280.646 66.2812 280.066 66.3574 279.574 66.5098C279.082 66.6621 278.678 66.8789 278.361 67.1602C278.045 67.4297 277.811 67.7461 277.658 68.1094C277.518 68.4727 277.447 68.8711 277.447 69.3047C277.447 69.7383 277.547 70.1309 277.746 70.4824C277.945 70.8223 278.232 71.0918 278.607 71.291C278.982 71.4785 279.422 71.5723 279.926 71.5723C280.688 71.5723 281.35 71.4199 281.912 71.1152C282.475 70.8105 282.908 70.4355 283.213 69.9902C283.529 69.5449 283.693 69.123 283.705 68.7246L285.041 70.8691C284.854 71.3496 284.596 71.8477 284.268 72.3633C283.951 72.8789 283.547 73.3652 283.055 73.8223C282.562 74.2676 281.971 74.6367 281.279 74.9297C280.588 75.2109 279.768 75.3516 278.818 75.3516C277.611 75.3516 276.516 75.1113 275.531 74.6309C274.559 74.1387 273.785 73.4648 273.211 72.6094C272.648 71.7422 272.367 70.7578 272.367 69.6562C272.367 68.6602 272.555 67.7754 272.93 67.002C273.305 66.2285 273.855 65.5781 274.582 65.0508C275.32 64.5117 276.24 64.1074 277.342 63.8379C278.443 63.5566 279.721 63.416 281.174 63.416H284.109ZM297.785 55.9805V75H292.705V55.9805H297.785ZM292.389 51.0234C292.389 50.2852 292.646 49.6758 293.162 49.1953C293.678 48.7148 294.369 48.4746 295.236 48.4746C296.092 48.4746 296.777 48.7148 297.293 49.1953C297.82 49.6758 298.084 50.2852 298.084 51.0234C298.084 51.7617 297.82 52.3711 297.293 52.8516C296.777 53.332 296.092 53.5723 295.236 53.5723C294.369 53.5723 293.678 53.332 293.162 52.8516C292.646 52.3711 292.389 51.7617 292.389 51.0234ZM313.201 70.8516V48H318.299V75H313.711L313.201 70.8516ZM301.178 65.7188V65.3496C301.178 63.8965 301.342 62.5781 301.67 61.3945C301.998 60.1992 302.479 59.1738 303.111 58.3184C303.744 57.4629 304.523 56.8008 305.449 56.332C306.375 55.8633 307.43 55.6289 308.613 55.6289C309.727 55.6289 310.699 55.8633 311.531 56.332C312.375 56.8008 313.09 57.4688 313.676 58.3359C314.273 59.1914 314.754 60.2051 315.117 61.377C315.48 62.5371 315.744 63.8086 315.908 65.1914V66C315.744 67.3242 315.48 68.5547 315.117 69.6914C314.754 70.8281 314.273 71.8242 313.676 72.6797C313.09 73.5234 312.375 74.1797 311.531 74.6484C310.688 75.1172 309.703 75.3516 308.578 75.3516C307.395 75.3516 306.34 75.1113 305.414 74.6309C304.5 74.1504 303.727 73.4766 303.094 72.6094C302.473 71.7422 301.998 70.7227 301.67 69.5508C301.342 68.3789 301.178 67.1016 301.178 65.7188ZM306.24 65.3496V65.7188C306.24 66.5039 306.299 67.2363 306.416 67.916C306.545 68.5957 306.75 69.1992 307.031 69.7266C307.324 70.2422 307.699 70.6465 308.156 70.9395C308.625 71.2207 309.193 71.3613 309.861 71.3613C310.729 71.3613 311.443 71.168 312.006 70.7812C312.568 70.3828 312.996 69.8379 313.289 69.1465C313.594 68.4551 313.77 67.6582 313.816 66.7559V64.4531C313.781 63.7148 313.676 63.0527 313.5 62.4668C313.336 61.8691 313.09 61.3594 312.762 60.9375C312.445 60.5156 312.047 60.1875 311.566 59.9531C311.098 59.7188 310.541 59.6016 309.896 59.6016C309.24 59.6016 308.678 59.7539 308.209 60.0586C307.74 60.3516 307.359 60.7559 307.066 61.2715C306.785 61.7871 306.574 62.3965 306.434 63.0996C306.305 63.791 306.24 64.541 306.24 65.3496ZM332.52 70.7109V62.2383C332.52 61.6289 332.42 61.1074 332.221 60.6738C332.021 60.2285 331.711 59.8828 331.289 59.6367C330.879 59.3906 330.346 59.2676 329.689 59.2676C329.127 59.2676 328.641 59.3672 328.23 59.5664C327.82 59.7539 327.504 60.0293 327.281 60.3926C327.059 60.7441 326.947 61.1602 326.947 61.6406H321.885C321.885 60.832 322.072 60.0645 322.447 59.3379C322.822 58.6113 323.367 57.9727 324.082 57.4219C324.797 56.8594 325.646 56.4199 326.631 56.1035C327.627 55.7871 328.74 55.6289 329.971 55.6289C331.447 55.6289 332.76 55.875 333.908 56.3672C335.057 56.8594 335.959 57.5977 336.615 58.582C337.283 59.5664 337.617 60.7969 337.617 62.2734V70.4121C337.617 71.4551 337.682 72.3105 337.811 72.9785C337.939 73.6348 338.127 74.209 338.373 74.7012V75H333.258C333.012 74.4844 332.824 73.8398 332.695 73.0664C332.578 72.2812 332.52 71.4961 332.52 70.7109ZM333.188 63.416L333.223 66.2812H330.393C329.725 66.2812 329.145 66.3574 328.652 66.5098C328.16 66.6621 327.756 66.8789 327.439 67.1602C327.123 67.4297 326.889 67.7461 326.736 68.1094C326.596 68.4727 326.525 68.8711 326.525 69.3047C326.525 69.7383 326.625 70.1309 326.824 70.4824C327.023 70.8223 327.311 71.0918 327.686 71.291C328.061 71.4785 328.5 71.5723 329.004 71.5723C329.766 71.5723 330.428 71.4199 330.99 71.1152C331.553 70.8105 331.986 70.4355 332.291 69.9902C332.607 69.5449 332.771 69.123 332.783 68.7246L334.119 70.8691C333.932 71.3496 333.674 71.8477 333.346 72.3633C333.029 72.8789 332.625 73.3652 332.133 73.8223C331.641 74.2676 331.049 74.6367 330.357 74.9297C329.666 75.2109 328.846 75.3516 327.896 75.3516C326.689 75.3516 325.594 75.1113 324.609 74.6309C323.637 74.1387 322.863 73.4648 322.289 72.6094C321.727 71.7422 321.445 70.7578 321.445 69.6562C321.445 68.6602 321.633 67.7754 322.008 67.002C322.383 66.2285 322.934 65.5781 323.66 65.0508C324.398 64.5117 325.318 64.1074 326.42 63.8379C327.521 63.5566 328.799 63.416 330.252 63.416H333.188ZM346.582 60.1289V75H341.52V55.9805H346.283L346.582 60.1289ZM352.312 55.8574L352.225 60.5508C351.979 60.5156 351.68 60.4863 351.328 60.4629C350.988 60.4277 350.678 60.4102 350.396 60.4102C349.682 60.4102 349.061 60.5039 348.533 60.6914C348.018 60.8672 347.584 61.1309 347.232 61.4824C346.893 61.834 346.635 62.2617 346.459 62.7656C346.295 63.2695 346.201 63.8438 346.178 64.4883L345.158 64.1719C345.158 62.9414 345.281 61.8105 345.527 60.7793C345.773 59.7363 346.131 58.8281 346.6 58.0547C347.08 57.2812 347.666 56.6836 348.357 56.2617C349.049 55.8398 349.84 55.6289 350.73 55.6289C351.012 55.6289 351.299 55.6523 351.592 55.6992C351.885 55.7344 352.125 55.7871 352.312 55.8574Z" fill="#888888"/>
<path d="M116.543 129.418C116.543 128.798 116.452 128.242 116.27 127.75C116.087 127.24 115.75 126.766 115.258 126.328C114.766 125.891 114.055 125.453 113.125 125.016C112.214 124.56 111.01 124.086 109.516 123.594C107.766 123.01 106.079 122.354 104.457 121.625C102.835 120.878 101.385 120.012 100.109 119.027C98.8333 118.025 97.8216 116.858 97.0742 115.527C96.3268 114.178 95.9531 112.611 95.9531 110.824C95.9531 109.111 96.3359 107.57 97.1016 106.203C97.8672 104.818 98.9336 103.642 100.301 102.676C101.686 101.691 103.309 100.944 105.168 100.434C107.027 99.9049 109.06 99.6406 111.266 99.6406C114.182 99.6406 116.753 100.151 118.977 101.172C121.219 102.174 122.969 103.605 124.227 105.465C125.503 107.306 126.141 109.484 126.141 112H116.598C116.598 110.997 116.388 110.113 115.969 109.348C115.568 108.582 114.957 107.98 114.137 107.543C113.316 107.105 112.286 106.887 111.047 106.887C109.844 106.887 108.832 107.069 108.012 107.434C107.191 107.798 106.572 108.29 106.152 108.91C105.733 109.512 105.523 110.177 105.523 110.906C105.523 111.508 105.688 112.055 106.016 112.547C106.362 113.021 106.845 113.467 107.465 113.887C108.103 114.306 108.868 114.707 109.762 115.09C110.673 115.473 111.694 115.846 112.824 116.211C114.939 116.885 116.816 117.642 118.457 118.48C120.116 119.301 121.51 120.24 122.641 121.297C123.789 122.336 124.655 123.521 125.238 124.852C125.84 126.182 126.141 127.686 126.141 129.363C126.141 131.15 125.794 132.736 125.102 134.121C124.409 135.507 123.415 136.682 122.121 137.648C120.827 138.596 119.277 139.316 117.473 139.809C115.668 140.301 113.654 140.547 111.43 140.547C109.388 140.547 107.374 140.292 105.387 139.781C103.418 139.253 101.632 138.451 100.027 137.375C98.4232 136.281 97.138 134.887 96.1719 133.191C95.224 131.478 94.75 129.445 94.75 127.094H104.375C104.375 128.26 104.53 129.245 104.84 130.047C105.15 130.849 105.605 131.496 106.207 131.988C106.809 132.462 107.547 132.809 108.422 133.027C109.297 133.228 110.299 133.328 111.43 133.328C112.651 133.328 113.635 133.155 114.383 132.809C115.13 132.444 115.677 131.97 116.023 131.387C116.37 130.785 116.543 130.129 116.543 129.418ZM139.949 97.9727V140H130.734V97.9727H139.949ZM158.871 110.414L146.02 125.48L139.293 132.207L135.273 126.355L140.879 119.055L147.824 110.414H158.871ZM149 140L141.098 126.52L147.906 121.68L159.555 140H149ZM170.355 136.527L178.012 110.414H187.91L176.016 144.402C175.76 145.15 175.423 145.952 175.004 146.809C174.585 147.684 174.01 148.513 173.281 149.297C172.552 150.081 171.613 150.719 170.465 151.211C169.335 151.703 167.931 151.949 166.254 151.949C165.361 151.949 164.704 151.904 164.285 151.812C163.884 151.74 163.264 151.603 162.426 151.402V144.812C162.663 144.812 162.863 144.812 163.027 144.812C163.21 144.812 163.41 144.812 163.629 144.812C164.613 144.812 165.397 144.712 165.98 144.512C166.582 144.311 167.038 144.02 167.348 143.637C167.676 143.254 167.931 142.789 168.113 142.242L170.355 136.527ZM168.414 110.414L174.238 131.113L175.25 140.875H169.07L158.543 110.414H168.414ZM210.031 100.188V140H200.434V100.188H210.031ZM222.008 100.188V107.598H188.73V100.188H222.008ZM233.137 117.742V140H223.922V110.414H232.535L233.137 117.742ZM241.887 110.195L241.723 118.754C241.358 118.717 240.866 118.672 240.246 118.617C239.626 118.562 239.107 118.535 238.688 118.535C237.612 118.535 236.682 118.663 235.898 118.918C235.133 119.155 234.495 119.52 233.984 120.012C233.492 120.486 233.128 121.087 232.891 121.816C232.672 122.546 232.572 123.393 232.59 124.359L230.922 123.266C230.922 121.279 231.113 119.474 231.496 117.852C231.897 116.211 232.462 114.798 233.191 113.613C233.921 112.41 234.805 111.49 235.844 110.852C236.883 110.195 238.049 109.867 239.344 109.867C239.799 109.867 240.246 109.895 240.684 109.949C241.139 110.004 241.54 110.086 241.887 110.195ZM259.605 132.562V120.367C259.605 119.529 259.487 118.809 259.25 118.207C259.013 117.605 258.639 117.141 258.129 116.812C257.618 116.466 256.935 116.293 256.078 116.293C255.385 116.293 254.793 116.411 254.301 116.648C253.809 116.885 253.435 117.241 253.18 117.715C252.924 118.189 252.797 118.79 252.797 119.52H243.582C243.582 118.152 243.883 116.885 244.484 115.719C245.104 114.534 245.979 113.504 247.109 112.629C248.258 111.754 249.625 111.079 251.211 110.605C252.815 110.113 254.602 109.867 256.57 109.867C258.922 109.867 261.018 110.259 262.859 111.043C264.719 111.827 266.186 113.003 267.262 114.57C268.337 116.12 268.875 118.07 268.875 120.422V132.535C268.875 134.467 268.984 135.935 269.203 136.938C269.422 137.922 269.732 138.788 270.133 139.535V140H260.891C260.453 139.089 260.125 137.977 259.906 136.664C259.706 135.333 259.605 133.966 259.605 132.562ZM260.727 121.926L260.781 126.848H256.707C255.85 126.848 255.121 126.966 254.52 127.203C253.936 127.44 253.462 127.768 253.098 128.188C252.751 128.589 252.496 129.044 252.332 129.555C252.186 130.065 252.113 130.603 252.113 131.168C252.113 131.715 252.241 132.207 252.496 132.645C252.77 133.064 253.134 133.392 253.59 133.629C254.046 133.866 254.556 133.984 255.121 133.984C256.142 133.984 257.008 133.793 257.719 133.41C258.448 133.009 259.004 132.526 259.387 131.961C259.77 131.396 259.961 130.867 259.961 130.375L261.984 134.148C261.62 134.878 261.201 135.616 260.727 136.363C260.271 137.111 259.697 137.803 259.004 138.441C258.329 139.061 257.5 139.572 256.516 139.973C255.531 140.355 254.337 140.547 252.934 140.547C251.111 140.547 249.434 140.173 247.902 139.426C246.389 138.678 245.177 137.639 244.266 136.309C243.354 134.96 242.898 133.41 242.898 131.66C242.898 130.129 243.172 128.762 243.719 127.559C244.284 126.355 245.132 125.335 246.262 124.496C247.392 123.658 248.832 123.02 250.582 122.582C252.332 122.145 254.392 121.926 256.762 121.926H260.727ZM286.484 133.438C287.341 133.438 288.07 133.283 288.672 132.973C289.292 132.645 289.757 132.189 290.066 131.605C290.395 131.004 290.549 130.284 290.531 129.445H299.199C299.217 131.669 298.671 133.62 297.559 135.297C296.465 136.956 294.97 138.25 293.074 139.18C291.197 140.091 289.073 140.547 286.703 140.547C284.388 140.547 282.365 140.173 280.633 139.426C278.901 138.66 277.452 137.603 276.285 136.254C275.137 134.887 274.271 133.292 273.688 131.469C273.122 129.646 272.84 127.668 272.84 125.535V124.906C272.84 122.773 273.122 120.796 273.688 118.973C274.271 117.132 275.137 115.536 276.285 114.188C277.452 112.82 278.892 111.763 280.605 111.016C282.337 110.25 284.352 109.867 286.648 109.867C289.109 109.867 291.279 110.332 293.156 111.262C295.052 112.191 296.538 113.54 297.613 115.309C298.689 117.077 299.217 119.219 299.199 121.734H290.531C290.549 120.841 290.413 120.039 290.121 119.328C289.829 118.617 289.374 118.052 288.754 117.633C288.152 117.195 287.378 116.977 286.43 116.977C285.482 116.977 284.716 117.186 284.133 117.605C283.549 118.025 283.103 118.608 282.793 119.355C282.501 120.085 282.301 120.923 282.191 121.871C282.1 122.819 282.055 123.831 282.055 124.906V125.535C282.055 126.629 282.1 127.659 282.191 128.625C282.301 129.573 282.51 130.411 282.82 131.141C283.13 131.852 283.577 132.417 284.16 132.836C284.743 133.237 285.518 133.438 286.484 133.438ZM312.434 97.9727V140H303.219V97.9727H312.434ZM331.355 110.414L318.504 125.48L311.777 132.207L307.758 126.355L313.363 119.055L320.309 110.414H331.355ZM321.484 140L313.582 126.52L320.391 121.68L332.039 140H321.484Z" fill="black"/>
<rect x="93" y="178" width="480" height="77" rx="10" fill="#D3D3D3"/>
<rect x="111" y="196" width="104" height="41" rx="3" fill="#424242"/>
<rect x="111" y="196" width="104" height="41" rx="3" stroke="#424242" stroke-width="4"/>
<path d="M139.691 212.893L136.571 223H133.258L137.96 210.203H140.061L139.691 212.893ZM142.275 223L139.146 212.893L138.742 210.203H140.869L145.598 223H142.275ZM142.152 218.228V220.609H135.587V218.228H142.152ZM149.526 213.49V223H146.556V213.49H149.526ZM146.38 211.038C146.38 210.616 146.532 210.271 146.837 210.001C147.142 209.731 147.537 209.597 148.023 209.597C148.51 209.597 148.905 209.731 149.21 210.001C149.515 210.271 149.667 210.616 149.667 211.038C149.667 211.46 149.515 211.806 149.21 212.075C148.905 212.345 148.51 212.479 148.023 212.479C147.537 212.479 147.142 212.345 146.837 212.075C146.532 211.806 146.38 211.46 146.38 211.038ZM154.343 215.846V223H151.381V213.49H154.149L154.343 215.846ZM157.155 213.42L157.103 216.171C156.985 216.159 156.827 216.145 156.628 216.127C156.429 216.109 156.262 216.101 156.127 216.101C155.781 216.101 155.482 216.142 155.23 216.224C154.984 216.3 154.779 216.417 154.615 216.575C154.457 216.728 154.34 216.921 154.264 217.155C154.193 217.39 154.161 217.662 154.167 217.973L153.631 217.621C153.631 216.982 153.692 216.402 153.815 215.881C153.944 215.354 154.126 214.899 154.36 214.519C154.595 214.132 154.879 213.836 155.213 213.631C155.547 213.42 155.922 213.314 156.338 213.314C156.484 213.314 156.628 213.323 156.769 213.341C156.915 213.358 157.044 213.385 157.155 213.42ZM158.201 209.5H161.163V220.662L160.855 223H158.201V209.5ZM166.999 218.14V218.324C166.999 219.045 166.926 219.701 166.779 220.293C166.633 220.885 166.407 221.397 166.103 221.831C165.798 222.259 165.414 222.59 164.951 222.824C164.488 223.059 163.94 223.176 163.308 223.176C162.733 223.176 162.241 223.053 161.831 222.807C161.421 222.555 161.078 222.209 160.803 221.77C160.527 221.324 160.305 220.812 160.135 220.231C159.965 219.646 159.83 219.019 159.73 218.351V218.131C159.83 217.469 159.965 216.848 160.135 216.268C160.305 215.682 160.527 215.169 160.803 214.729C161.078 214.284 161.418 213.938 161.822 213.692C162.232 213.44 162.722 213.314 163.29 213.314C163.929 213.314 164.479 213.435 164.942 213.675C165.411 213.915 165.798 214.252 166.103 214.686C166.407 215.119 166.633 215.629 166.779 216.215C166.926 216.801 166.999 217.442 166.999 218.14ZM164.037 218.324V218.14C164.037 217.794 164.017 217.469 163.976 217.164C163.935 216.859 163.861 216.59 163.756 216.355C163.65 216.121 163.501 215.937 163.308 215.802C163.114 215.667 162.862 215.6 162.552 215.6C162.235 215.6 161.969 215.652 161.752 215.758C161.541 215.863 161.371 216.016 161.242 216.215C161.119 216.408 161.031 216.648 160.979 216.936C160.926 217.217 160.902 217.536 160.908 217.894V218.588C160.896 219.074 160.94 219.49 161.04 219.836C161.14 220.182 161.312 220.445 161.559 220.627C161.805 220.809 162.142 220.899 162.569 220.899C162.886 220.899 163.141 220.838 163.334 220.715C163.533 220.592 163.683 220.416 163.782 220.188C163.882 219.959 163.949 219.687 163.984 219.37C164.02 219.054 164.037 218.705 164.037 218.324ZM171.13 221.884L173.591 213.49H176.772L172.949 224.415C172.867 224.655 172.759 224.913 172.624 225.188C172.489 225.47 172.305 225.736 172.07 225.988C171.836 226.24 171.534 226.445 171.165 226.604C170.802 226.762 170.351 226.841 169.812 226.841C169.524 226.841 169.313 226.826 169.179 226.797C169.05 226.773 168.851 226.729 168.581 226.665V224.547C168.657 224.547 168.722 224.547 168.774 224.547C168.833 224.547 168.897 224.547 168.968 224.547C169.284 224.547 169.536 224.515 169.724 224.45C169.917 224.386 170.063 224.292 170.163 224.169C170.269 224.046 170.351 223.896 170.409 223.721L171.13 221.884ZM170.506 213.49L172.378 220.144L172.703 223.281H170.717L167.333 213.49H170.506ZM182.556 213.49V215.547H176.825V213.49H182.556ZM178.029 211.126H180.991V219.897C180.991 220.149 181.021 220.346 181.079 220.486C181.138 220.621 181.237 220.718 181.378 220.776C181.524 220.829 181.718 220.855 181.958 220.855C182.128 220.855 182.269 220.853 182.38 220.847C182.491 220.835 182.597 220.82 182.696 220.803V222.921C182.444 223.003 182.181 223.064 181.905 223.105C181.63 223.152 181.337 223.176 181.026 223.176C180.394 223.176 179.852 223.076 179.4 222.877C178.955 222.678 178.615 222.364 178.381 221.937C178.146 221.509 178.029 220.952 178.029 220.267V211.126ZM188.339 223.176C187.565 223.176 186.874 223.056 186.265 222.815C185.655 222.569 185.14 222.232 184.718 221.805C184.302 221.377 183.982 220.885 183.76 220.328C183.543 219.771 183.435 219.183 183.435 218.562V218.228C183.435 217.53 183.531 216.886 183.725 216.294C183.918 215.696 184.205 215.175 184.586 214.729C184.967 214.284 185.444 213.938 186.019 213.692C186.593 213.44 187.261 213.314 188.022 213.314C188.696 213.314 189.3 213.423 189.833 213.64C190.366 213.856 190.817 214.167 191.187 214.571C191.562 214.976 191.846 215.465 192.039 216.039C192.238 216.613 192.338 217.258 192.338 217.973V219.177H184.568V217.322H189.446V217.094C189.452 216.777 189.396 216.508 189.279 216.285C189.168 216.062 189.004 215.893 188.787 215.775C188.57 215.658 188.307 215.6 187.996 215.6C187.674 215.6 187.407 215.67 187.196 215.811C186.991 215.951 186.83 216.145 186.713 216.391C186.602 216.631 186.522 216.909 186.476 217.226C186.429 217.542 186.405 217.876 186.405 218.228V218.562C186.405 218.913 186.452 219.232 186.546 219.52C186.646 219.807 186.786 220.053 186.968 220.258C187.155 220.457 187.378 220.612 187.636 220.724C187.899 220.835 188.198 220.891 188.532 220.891C188.937 220.891 189.335 220.814 189.728 220.662C190.12 220.51 190.457 220.258 190.738 219.906L192.083 221.506C191.89 221.781 191.614 222.048 191.257 222.306C190.905 222.563 190.483 222.774 189.991 222.938C189.499 223.097 188.948 223.176 188.339 223.176Z" fill="white"/>
<rect x="235" y="196" width="101" height="41" rx="3" fill="#424242"/>
<rect x="235" y="196" width="101" height="41" rx="3" stroke="#424242" stroke-width="4"/>
<path d="M266.779 220.627V223H260.311V220.627H266.779ZM261.409 210.203V223H258.324V210.203H261.409ZM267.57 218.342V218.157C267.57 217.46 267.67 216.818 267.869 216.232C268.068 215.641 268.361 215.128 268.748 214.694C269.135 214.261 269.612 213.924 270.181 213.684C270.749 213.438 271.405 213.314 272.149 213.314C272.899 213.314 273.559 213.438 274.127 213.684C274.701 213.924 275.182 214.261 275.568 214.694C275.955 215.128 276.248 215.641 276.447 216.232C276.646 216.818 276.746 217.46 276.746 218.157V218.342C276.746 219.033 276.646 219.675 276.447 220.267C276.248 220.853 275.955 221.365 275.568 221.805C275.182 222.238 274.704 222.575 274.136 222.815C273.567 223.056 272.911 223.176 272.167 223.176C271.423 223.176 270.764 223.056 270.189 222.815C269.615 222.575 269.135 222.238 268.748 221.805C268.361 221.365 268.068 220.853 267.869 220.267C267.67 219.675 267.57 219.033 267.57 218.342ZM270.532 218.157V218.342C270.532 218.699 270.559 219.033 270.611 219.344C270.664 219.654 270.752 219.927 270.875 220.161C270.998 220.39 271.165 220.568 271.376 220.697C271.587 220.826 271.851 220.891 272.167 220.891C272.478 220.891 272.735 220.826 272.94 220.697C273.151 220.568 273.318 220.39 273.441 220.161C273.564 219.927 273.652 219.654 273.705 219.344C273.758 219.033 273.784 218.699 273.784 218.342V218.157C273.784 217.812 273.758 217.486 273.705 217.182C273.652 216.871 273.564 216.599 273.441 216.364C273.318 216.124 273.151 215.937 272.94 215.802C272.729 215.667 272.466 215.6 272.149 215.6C271.839 215.6 271.578 215.667 271.367 215.802C271.162 215.937 270.998 216.124 270.875 216.364C270.752 216.599 270.664 216.871 270.611 217.182C270.559 217.486 270.532 217.812 270.532 218.157ZM277.695 218.342V218.157C277.695 217.46 277.795 216.818 277.994 216.232C278.193 215.641 278.486 215.128 278.873 214.694C279.26 214.261 279.737 213.924 280.306 213.684C280.874 213.438 281.53 213.314 282.274 213.314C283.024 213.314 283.684 213.438 284.252 213.684C284.826 213.924 285.307 214.261 285.693 214.694C286.08 215.128 286.373 215.641 286.572 216.232C286.771 216.818 286.871 217.46 286.871 218.157V218.342C286.871 219.033 286.771 219.675 286.572 220.267C286.373 220.853 286.08 221.365 285.693 221.805C285.307 222.238 284.829 222.575 284.261 222.815C283.692 223.056 283.036 223.176 282.292 223.176C281.548 223.176 280.889 223.056 280.314 222.815C279.74 222.575 279.26 222.238 278.873 221.805C278.486 221.365 278.193 220.853 277.994 220.267C277.795 219.675 277.695 219.033 277.695 218.342ZM280.657 218.157V218.342C280.657 218.699 280.684 219.033 280.736 219.344C280.789 219.654 280.877 219.927 281 220.161C281.123 220.39 281.29 220.568 281.501 220.697C281.712 220.826 281.976 220.891 282.292 220.891C282.603 220.891 282.86 220.826 283.065 220.697C283.276 220.568 283.443 220.39 283.566 220.161C283.689 219.927 283.777 219.654 283.83 219.344C283.883 219.033 283.909 218.699 283.909 218.342V218.157C283.909 217.812 283.883 217.486 283.83 217.182C283.777 216.871 283.689 216.599 283.566 216.364C283.443 216.124 283.276 215.937 283.065 215.802C282.854 215.667 282.591 215.6 282.274 215.6C281.964 215.6 281.703 215.667 281.492 215.802C281.287 215.937 281.123 216.124 281 216.364C280.877 216.599 280.789 216.871 280.736 217.182C280.684 217.486 280.657 217.812 280.657 218.157ZM291.178 209.491V223H288.216V209.491H291.178ZM297.26 213.49L293.129 218.333L290.967 220.495L289.675 218.614L291.477 216.268L293.709 213.49H297.26ZM294.087 223L291.547 218.667L293.735 217.111L297.479 223H294.087ZM302.463 223.176C301.689 223.176 300.998 223.056 300.389 222.815C299.779 222.569 299.264 222.232 298.842 221.805C298.426 221.377 298.106 220.885 297.884 220.328C297.667 219.771 297.559 219.183 297.559 218.562V218.228C297.559 217.53 297.655 216.886 297.849 216.294C298.042 215.696 298.329 215.175 298.71 214.729C299.091 214.284 299.568 213.938 300.143 213.692C300.717 213.44 301.385 213.314 302.146 213.314C302.82 213.314 303.424 213.423 303.957 213.64C304.49 213.856 304.941 214.167 305.311 214.571C305.686 214.976 305.97 215.465 306.163 216.039C306.362 216.613 306.462 217.258 306.462 217.973V219.177H298.692V217.322H303.57V217.094C303.576 216.777 303.521 216.508 303.403 216.285C303.292 216.062 303.128 215.893 302.911 215.775C302.694 215.658 302.431 215.6 302.12 215.6C301.798 215.6 301.531 215.67 301.32 215.811C301.115 215.951 300.954 216.145 300.837 216.391C300.726 216.631 300.646 216.909 300.6 217.226C300.553 217.542 300.529 217.876 300.529 218.228V218.562C300.529 218.913 300.576 219.232 300.67 219.52C300.77 219.807 300.91 220.053 301.092 220.258C301.279 220.457 301.502 220.612 301.76 220.724C302.023 220.835 302.322 220.891 302.656 220.891C303.061 220.891 303.459 220.814 303.852 220.662C304.244 220.51 304.581 220.258 304.862 219.906L306.207 221.506C306.014 221.781 305.738 222.048 305.381 222.306C305.029 222.563 304.607 222.774 304.115 222.938C303.623 223.097 303.072 223.176 302.463 223.176ZM310.654 215.846V223H307.692V213.49H310.461L310.654 215.846ZM313.467 213.42L313.414 216.171C313.297 216.159 313.139 216.145 312.939 216.127C312.74 216.109 312.573 216.101 312.438 216.101C312.093 216.101 311.794 216.142 311.542 216.224C311.296 216.3 311.091 216.417 310.927 216.575C310.769 216.728 310.651 216.921 310.575 217.155C310.505 217.39 310.473 217.662 310.479 217.973L309.942 217.621C309.942 216.982 310.004 216.402 310.127 215.881C310.256 215.354 310.438 214.899 310.672 214.519C310.906 214.132 311.19 213.836 311.524 213.631C311.858 213.42 312.233 213.314 312.649 213.314C312.796 213.314 312.939 213.323 313.08 213.341C313.227 213.358 313.355 213.385 313.467 213.42Z" fill="white"/>
<rect x="356" y="196" width="80" height="41" rx="3" fill="#424242"/>
<rect x="356" y="196" width="80" height="41" rx="3" stroke="#424242" stroke-width="4"/>
<path d="M389.54 216.162V221.418C389.323 221.658 388.989 221.916 388.538 222.191C388.093 222.461 387.53 222.692 386.851 222.886C386.171 223.079 385.371 223.176 384.451 223.176C383.602 223.176 382.831 223.041 382.14 222.771C381.448 222.496 380.854 222.095 380.355 221.567C379.863 221.034 379.482 220.384 379.213 219.616C378.949 218.843 378.817 217.958 378.817 216.962V216.25C378.817 215.254 378.952 214.369 379.222 213.596C379.491 212.822 379.869 212.172 380.355 211.645C380.848 211.111 381.425 210.707 382.087 210.432C382.755 210.156 383.487 210.019 384.284 210.019C385.462 210.019 386.42 210.206 387.158 210.581C387.896 210.95 388.456 211.463 388.837 212.119C389.218 212.77 389.449 213.522 389.531 214.378H386.569C386.511 213.956 386.399 213.599 386.235 213.306C386.077 213.007 385.849 212.781 385.55 212.629C385.251 212.471 384.864 212.392 384.39 212.392C384.021 212.392 383.684 212.471 383.379 212.629C383.08 212.787 382.825 213.027 382.614 213.35C382.403 213.666 382.239 214.064 382.122 214.545C382.011 215.025 381.955 215.588 381.955 216.232V216.962C381.955 217.601 382.008 218.16 382.113 218.641C382.225 219.121 382.389 219.522 382.605 219.845C382.828 220.161 383.109 220.401 383.449 220.565C383.795 220.724 384.202 220.803 384.671 220.803C384.999 220.803 385.28 220.776 385.515 220.724C385.749 220.665 385.942 220.595 386.095 220.513C386.253 220.425 386.373 220.343 386.455 220.267V218.28H384.311V216.162H389.54ZM398.619 218.667H401.695C401.654 219.558 401.414 220.343 400.975 221.022C400.535 221.702 399.926 222.232 399.146 222.613C398.373 222.988 397.459 223.176 396.404 223.176C395.549 223.176 394.784 223.032 394.11 222.745C393.442 222.458 392.874 222.045 392.405 221.506C391.942 220.967 391.588 220.313 391.342 219.546C391.102 218.778 390.981 217.914 390.981 216.953V216.259C390.981 215.298 391.107 214.434 391.359 213.666C391.617 212.893 391.98 212.236 392.449 211.697C392.924 211.152 393.492 210.736 394.154 210.449C394.816 210.162 395.552 210.019 396.36 210.019C397.474 210.019 398.414 210.218 399.182 210.616C399.949 211.015 400.544 211.562 400.966 212.26C401.388 212.951 401.637 213.739 401.713 214.624H398.637C398.625 214.144 398.543 213.742 398.391 213.42C398.238 213.092 397.998 212.846 397.67 212.682C397.342 212.518 396.905 212.436 396.36 212.436C395.979 212.436 395.648 212.506 395.367 212.646C395.086 212.787 394.852 213.01 394.664 213.314C394.477 213.619 394.336 214.015 394.242 214.501C394.154 214.981 394.11 215.562 394.11 216.241V216.953C394.11 217.633 394.151 218.213 394.233 218.693C394.315 219.174 394.447 219.566 394.629 219.871C394.811 220.176 395.045 220.401 395.332 220.548C395.625 220.688 395.982 220.759 396.404 220.759C396.873 220.759 397.269 220.686 397.591 220.539C397.913 220.387 398.162 220.158 398.338 219.854C398.514 219.543 398.607 219.147 398.619 218.667ZM408.261 218.658H405.079V216.276H408.261C408.694 216.276 409.046 216.203 409.315 216.057C409.585 215.91 409.781 215.708 409.904 215.45C410.033 215.187 410.098 214.891 410.098 214.562C410.098 214.211 410.033 213.886 409.904 213.587C409.781 213.288 409.585 213.048 409.315 212.866C409.046 212.679 408.694 212.585 408.261 212.585H406.239V223H403.154V210.203H408.261C409.286 210.203 410.168 210.391 410.906 210.766C411.65 211.141 412.222 211.656 412.62 212.312C413.019 212.963 413.218 213.707 413.218 214.545C413.218 215.371 413.019 216.092 412.62 216.707C412.222 217.322 411.65 217.803 410.906 218.148C410.168 218.488 409.286 218.658 408.261 218.658Z" fill="white"/>
<rect x="456" y="196" width="102" height="41" rx="3" fill="#424242"/>
<rect x="456" y="196" width="102" height="41" rx="3" stroke="#424242" stroke-width="4"/>
<path d="M484.166 218.658H480.984V216.276H484.166C484.6 216.276 484.951 216.203 485.221 216.057C485.49 215.91 485.687 215.708 485.81 215.45C485.938 215.187 486.003 214.891 486.003 214.562C486.003 214.211 485.938 213.886 485.81 213.587C485.687 213.288 485.49 213.048 485.221 212.866C484.951 212.679 484.6 212.585 484.166 212.585H482.145V223H479.06V210.203H484.166C485.191 210.203 486.073 210.391 486.812 210.766C487.556 211.141 488.127 211.656 488.525 212.312C488.924 212.963 489.123 213.707 489.123 214.545C489.123 215.371 488.924 216.092 488.525 216.707C488.127 217.322 487.556 217.803 486.812 218.148C486.073 218.488 485.191 218.658 484.166 218.658ZM493.702 221.884L496.163 213.49H499.345L495.521 224.415C495.439 224.655 495.331 224.913 495.196 225.188C495.062 225.47 494.877 225.736 494.643 225.988C494.408 226.24 494.106 226.445 493.737 226.604C493.374 226.762 492.923 226.841 492.384 226.841C492.097 226.841 491.886 226.826 491.751 226.797C491.622 226.773 491.423 226.729 491.153 226.665V224.547C491.229 224.547 491.294 224.547 491.347 224.547C491.405 224.547 491.47 224.547 491.54 224.547C491.856 224.547 492.108 224.515 492.296 224.45C492.489 224.386 492.636 224.292 492.735 224.169C492.841 224.046 492.923 223.896 492.981 223.721L493.702 221.884ZM493.078 213.49L494.95 220.144L495.275 223.281H493.289L489.905 213.49H493.078ZM505.128 213.49V215.547H499.397V213.49H505.128ZM500.602 211.126H503.563V219.897C503.563 220.149 503.593 220.346 503.651 220.486C503.71 220.621 503.81 220.718 503.95 220.776C504.097 220.829 504.29 220.855 504.53 220.855C504.7 220.855 504.841 220.853 504.952 220.847C505.063 220.835 505.169 220.82 505.269 220.803V222.921C505.017 223.003 504.753 223.064 504.478 223.105C504.202 223.152 503.909 223.176 503.599 223.176C502.966 223.176 502.424 223.076 501.973 222.877C501.527 222.678 501.188 222.364 500.953 221.937C500.719 221.509 500.602 220.952 500.602 220.267V211.126ZM509.206 209.5V223H506.244V209.5H509.206ZM508.854 217.92L508.16 217.938C508.16 217.27 508.242 216.654 508.406 216.092C508.57 215.529 508.805 215.04 509.109 214.624C509.414 214.208 509.78 213.886 510.208 213.657C510.636 213.429 511.11 213.314 511.632 213.314C512.101 213.314 512.528 213.382 512.915 213.517C513.308 213.651 513.645 213.868 513.926 214.167C514.213 214.466 514.433 214.855 514.585 215.336C514.743 215.816 514.822 216.402 514.822 217.094V223H511.843V217.076C511.843 216.689 511.787 216.391 511.676 216.18C511.57 215.963 511.418 215.813 511.219 215.731C511.02 215.644 510.776 215.6 510.489 215.6C510.144 215.6 509.862 215.658 509.646 215.775C509.429 215.893 509.262 216.057 509.145 216.268C509.033 216.473 508.957 216.716 508.916 216.997C508.875 217.278 508.854 217.586 508.854 217.92ZM516.097 218.342V218.157C516.097 217.46 516.196 216.818 516.396 216.232C516.595 215.641 516.888 215.128 517.274 214.694C517.661 214.261 518.139 213.924 518.707 213.684C519.275 213.438 519.932 213.314 520.676 213.314C521.426 213.314 522.085 213.438 522.653 213.684C523.228 213.924 523.708 214.261 524.095 214.694C524.481 215.128 524.774 215.641 524.974 216.232C525.173 216.818 525.272 217.46 525.272 218.157V218.342C525.272 219.033 525.173 219.675 524.974 220.267C524.774 220.853 524.481 221.365 524.095 221.805C523.708 222.238 523.23 222.575 522.662 222.815C522.094 223.056 521.438 223.176 520.693 223.176C519.949 223.176 519.29 223.056 518.716 222.815C518.142 222.575 517.661 222.238 517.274 221.805C516.888 221.365 516.595 220.853 516.396 220.267C516.196 219.675 516.097 219.033 516.097 218.342ZM519.059 218.157V218.342C519.059 218.699 519.085 219.033 519.138 219.344C519.19 219.654 519.278 219.927 519.401 220.161C519.524 220.39 519.691 220.568 519.902 220.697C520.113 220.826 520.377 220.891 520.693 220.891C521.004 220.891 521.262 220.826 521.467 220.697C521.678 220.568 521.845 220.39 521.968 220.161C522.091 219.927 522.179 219.654 522.231 219.344C522.284 219.033 522.311 218.699 522.311 218.342V218.157C522.311 217.812 522.284 217.486 522.231 217.182C522.179 216.871 522.091 216.599 521.968 216.364C521.845 216.124 521.678 215.937 521.467 215.802C521.256 215.667 520.992 215.6 520.676 215.6C520.365 215.6 520.104 215.667 519.894 215.802C519.688 215.937 519.524 216.124 519.401 216.364C519.278 216.599 519.19 216.871 519.138 217.182C519.085 217.486 519.059 217.812 519.059 218.157ZM529.5 215.521V223H526.538V213.49H529.315L529.5 215.521ZM529.148 217.92L528.454 217.938C528.454 217.211 528.542 216.563 528.718 215.995C528.894 215.421 529.143 214.935 529.465 214.536C529.787 214.138 530.171 213.836 530.616 213.631C531.067 213.42 531.568 213.314 532.119 213.314C532.559 213.314 532.96 213.379 533.323 213.508C533.692 213.637 534.009 213.845 534.272 214.132C534.542 214.419 534.747 214.8 534.888 215.274C535.034 215.743 535.107 216.323 535.107 217.015V223H532.128V217.006C532.128 216.625 532.075 216.335 531.97 216.136C531.864 215.931 531.712 215.79 531.513 215.714C531.313 215.638 531.07 215.6 530.783 215.6C530.479 215.6 530.221 215.658 530.01 215.775C529.799 215.893 529.629 216.057 529.5 216.268C529.377 216.473 529.286 216.716 529.228 216.997C529.175 217.278 529.148 217.586 529.148 217.92Z" fill="white"/>
</svg>
